<mxfile host="app.diagrams.net" modified="2023-11-14T16:15:25.103Z" agent="Mozilla/5.0 (Windows NT 10.0; Win64; x64) AppleWebKit/537.36 (KHTML, like Gecko) Chrome/119.0.0.0 Safari/537.36 Edg/119.0.0.0" etag="Fvl90J7ntxaEmJv5i2cQ" version="22.1.1" type="device">
  <diagram name="Página-1" id="AVxTDq_Ej3UXUj-Lq_wj">
    <mxGraphModel dx="1072" dy="481" grid="1" gridSize="10" guides="1" tooltips="1" connect="1" arrows="1" fold="1" page="1" pageScale="1" pageWidth="827" pageHeight="1169" math="0" shadow="0">
      <root>
        <mxCell id="0" />
        <mxCell id="1" parent="0" />
        <mxCell id="c6CO79K2PgTcj9Gy6Vg2-22" style="edgeStyle=orthogonalEdgeStyle;rounded=0;orthogonalLoop=1;jettySize=auto;html=1;exitX=0.25;exitY=0;exitDx=0;exitDy=0;entryX=1;entryY=1;entryDx=0;entryDy=0;" edge="1" parent="1" source="c6CO79K2PgTcj9Gy6Vg2-1" target="c6CO79K2PgTcj9Gy6Vg2-16">
          <mxGeometry relative="1" as="geometry" />
        </mxCell>
        <mxCell id="c6CO79K2PgTcj9Gy6Vg2-23" style="edgeStyle=orthogonalEdgeStyle;rounded=0;orthogonalLoop=1;jettySize=auto;html=1;exitX=0.75;exitY=0;exitDx=0;exitDy=0;entryX=0;entryY=1;entryDx=0;entryDy=0;" edge="1" parent="1" source="c6CO79K2PgTcj9Gy6Vg2-1" target="c6CO79K2PgTcj9Gy6Vg2-15">
          <mxGeometry relative="1" as="geometry" />
        </mxCell>
        <mxCell id="c6CO79K2PgTcj9Gy6Vg2-37" style="edgeStyle=orthogonalEdgeStyle;rounded=0;orthogonalLoop=1;jettySize=auto;html=1;exitX=1;exitY=0.5;exitDx=0;exitDy=0;entryX=0;entryY=0.5;entryDx=0;entryDy=0;" edge="1" parent="1" source="c6CO79K2PgTcj9Gy6Vg2-1" target="c6CO79K2PgTcj9Gy6Vg2-2">
          <mxGeometry relative="1" as="geometry" />
        </mxCell>
        <mxCell id="c6CO79K2PgTcj9Gy6Vg2-1" value="APARATO ELECTRONICO" style="rounded=0;whiteSpace=wrap;html=1;" vertex="1" parent="1">
          <mxGeometry x="120" y="90" width="120" height="60" as="geometry" />
        </mxCell>
        <mxCell id="c6CO79K2PgTcj9Gy6Vg2-38" style="edgeStyle=orthogonalEdgeStyle;rounded=0;orthogonalLoop=1;jettySize=auto;html=1;exitX=1;exitY=0.5;exitDx=0;exitDy=0;entryX=0;entryY=0.75;entryDx=0;entryDy=0;" edge="1" parent="1" source="c6CO79K2PgTcj9Gy6Vg2-2" target="c6CO79K2PgTcj9Gy6Vg2-5">
          <mxGeometry relative="1" as="geometry" />
        </mxCell>
        <mxCell id="c6CO79K2PgTcj9Gy6Vg2-2" value="FORMA PARTE" style="rhombus;whiteSpace=wrap;html=1;" vertex="1" parent="1">
          <mxGeometry x="360" y="80" width="80" height="80" as="geometry" />
        </mxCell>
        <mxCell id="c6CO79K2PgTcj9Gy6Vg2-33" style="edgeStyle=orthogonalEdgeStyle;rounded=0;orthogonalLoop=1;jettySize=auto;html=1;exitX=0.25;exitY=1;exitDx=0;exitDy=0;entryX=0.5;entryY=0;entryDx=0;entryDy=0;" edge="1" parent="1" source="c6CO79K2PgTcj9Gy6Vg2-3" target="c6CO79K2PgTcj9Gy6Vg2-9">
          <mxGeometry relative="1" as="geometry" />
        </mxCell>
        <mxCell id="c6CO79K2PgTcj9Gy6Vg2-34" style="edgeStyle=orthogonalEdgeStyle;rounded=0;orthogonalLoop=1;jettySize=auto;html=1;exitX=0.75;exitY=1;exitDx=0;exitDy=0;entryX=0;entryY=0;entryDx=0;entryDy=0;" edge="1" parent="1" source="c6CO79K2PgTcj9Gy6Vg2-3" target="c6CO79K2PgTcj9Gy6Vg2-8">
          <mxGeometry relative="1" as="geometry" />
        </mxCell>
        <mxCell id="c6CO79K2PgTcj9Gy6Vg2-3" value="FABRICANTE" style="rounded=0;whiteSpace=wrap;html=1;" vertex="1" parent="1">
          <mxGeometry x="590" y="310" width="120" height="60" as="geometry" />
        </mxCell>
        <mxCell id="c6CO79K2PgTcj9Gy6Vg2-28" style="edgeStyle=orthogonalEdgeStyle;rounded=0;orthogonalLoop=1;jettySize=auto;html=1;exitX=0;exitY=1;exitDx=0;exitDy=0;entryX=0.5;entryY=0;entryDx=0;entryDy=0;" edge="1" parent="1" source="c6CO79K2PgTcj9Gy6Vg2-4" target="c6CO79K2PgTcj9Gy6Vg2-12">
          <mxGeometry relative="1" as="geometry" />
        </mxCell>
        <mxCell id="c6CO79K2PgTcj9Gy6Vg2-29" style="edgeStyle=orthogonalEdgeStyle;rounded=0;orthogonalLoop=1;jettySize=auto;html=1;exitX=0.5;exitY=1;exitDx=0;exitDy=0;entryX=0.5;entryY=0;entryDx=0;entryDy=0;" edge="1" parent="1" source="c6CO79K2PgTcj9Gy6Vg2-4" target="c6CO79K2PgTcj9Gy6Vg2-11">
          <mxGeometry relative="1" as="geometry" />
        </mxCell>
        <mxCell id="c6CO79K2PgTcj9Gy6Vg2-30" style="edgeStyle=orthogonalEdgeStyle;rounded=0;orthogonalLoop=1;jettySize=auto;html=1;exitX=1;exitY=1;exitDx=0;exitDy=0;entryX=0.5;entryY=0;entryDx=0;entryDy=0;" edge="1" parent="1" source="c6CO79K2PgTcj9Gy6Vg2-4" target="c6CO79K2PgTcj9Gy6Vg2-10">
          <mxGeometry relative="1" as="geometry" />
        </mxCell>
        <mxCell id="c6CO79K2PgTcj9Gy6Vg2-31" style="edgeStyle=orthogonalEdgeStyle;rounded=0;orthogonalLoop=1;jettySize=auto;html=1;exitX=1;exitY=0.5;exitDx=0;exitDy=0;entryX=0;entryY=0.5;entryDx=0;entryDy=0;" edge="1" parent="1" source="c6CO79K2PgTcj9Gy6Vg2-4" target="c6CO79K2PgTcj9Gy6Vg2-19">
          <mxGeometry relative="1" as="geometry" />
        </mxCell>
        <mxCell id="c6CO79K2PgTcj9Gy6Vg2-4" value="COMPONENTE" style="rounded=0;whiteSpace=wrap;html=1;" vertex="1" parent="1">
          <mxGeometry x="120" y="310" width="120" height="60" as="geometry" />
        </mxCell>
        <mxCell id="c6CO79K2PgTcj9Gy6Vg2-35" style="edgeStyle=orthogonalEdgeStyle;rounded=0;orthogonalLoop=1;jettySize=auto;html=1;exitX=1;exitY=1;exitDx=0;exitDy=0;entryX=0.5;entryY=0;entryDx=0;entryDy=0;" edge="1" parent="1" source="c6CO79K2PgTcj9Gy6Vg2-5" target="c6CO79K2PgTcj9Gy6Vg2-17">
          <mxGeometry relative="1" as="geometry" />
        </mxCell>
        <mxCell id="c6CO79K2PgTcj9Gy6Vg2-39" style="edgeStyle=orthogonalEdgeStyle;rounded=0;orthogonalLoop=1;jettySize=auto;html=1;exitX=0.25;exitY=0;exitDx=0;exitDy=0;entryX=0.5;entryY=1;entryDx=0;entryDy=0;" edge="1" parent="1" source="c6CO79K2PgTcj9Gy6Vg2-5" target="c6CO79K2PgTcj9Gy6Vg2-14">
          <mxGeometry relative="1" as="geometry" />
        </mxCell>
        <mxCell id="c6CO79K2PgTcj9Gy6Vg2-40" style="edgeStyle=orthogonalEdgeStyle;rounded=0;orthogonalLoop=1;jettySize=auto;html=1;exitX=0.75;exitY=0;exitDx=0;exitDy=0;entryX=0;entryY=1;entryDx=0;entryDy=0;" edge="1" parent="1" source="c6CO79K2PgTcj9Gy6Vg2-5" target="c6CO79K2PgTcj9Gy6Vg2-13">
          <mxGeometry relative="1" as="geometry" />
        </mxCell>
        <mxCell id="c6CO79K2PgTcj9Gy6Vg2-5" value="TIPO" style="rounded=0;whiteSpace=wrap;html=1;" vertex="1" parent="1">
          <mxGeometry x="590" y="90" width="120" height="40" as="geometry" />
        </mxCell>
        <mxCell id="c6CO79K2PgTcj9Gy6Vg2-8" value="DOMICIOLIO" style="ellipse;whiteSpace=wrap;html=1;" vertex="1" parent="1">
          <mxGeometry x="660" y="390" width="120" height="80" as="geometry" />
        </mxCell>
        <mxCell id="c6CO79K2PgTcj9Gy6Vg2-9" value="CIF" style="ellipse;whiteSpace=wrap;html=1;" vertex="1" parent="1">
          <mxGeometry x="520" y="390" width="120" height="80" as="geometry" />
        </mxCell>
        <mxCell id="c6CO79K2PgTcj9Gy6Vg2-10" value="&lt;u&gt;CÒDIGO&lt;/u&gt;" style="ellipse;whiteSpace=wrap;html=1;" vertex="1" parent="1">
          <mxGeometry x="250" y="390" width="90" height="60" as="geometry" />
        </mxCell>
        <mxCell id="c6CO79K2PgTcj9Gy6Vg2-11" value="NOMBRE" style="ellipse;whiteSpace=wrap;html=1;" vertex="1" parent="1">
          <mxGeometry x="135" y="390" width="90" height="60" as="geometry" />
        </mxCell>
        <mxCell id="c6CO79K2PgTcj9Gy6Vg2-12" value="ESPECIFICAR" style="ellipse;whiteSpace=wrap;html=1;" vertex="1" parent="1">
          <mxGeometry x="20" y="390" width="90" height="60" as="geometry" />
        </mxCell>
        <mxCell id="c6CO79K2PgTcj9Gy6Vg2-13" value="CARACTERES" style="ellipse;whiteSpace=wrap;html=1;" vertex="1" parent="1">
          <mxGeometry x="670" y="10" width="110" height="60" as="geometry" />
        </mxCell>
        <mxCell id="c6CO79K2PgTcj9Gy6Vg2-14" value="NOMBRE" style="ellipse;whiteSpace=wrap;html=1;" vertex="1" parent="1">
          <mxGeometry x="540" y="10" width="110" height="60" as="geometry" />
        </mxCell>
        <mxCell id="c6CO79K2PgTcj9Gy6Vg2-15" value="DESCRIPCIÓN" style="ellipse;whiteSpace=wrap;html=1;" vertex="1" parent="1">
          <mxGeometry x="170" width="120" height="80" as="geometry" />
        </mxCell>
        <mxCell id="c6CO79K2PgTcj9Gy6Vg2-16" value="&lt;u&gt;CÒDIGO&lt;/u&gt;" style="ellipse;whiteSpace=wrap;html=1;" vertex="1" parent="1">
          <mxGeometry x="30" width="120" height="80" as="geometry" />
        </mxCell>
        <mxCell id="c6CO79K2PgTcj9Gy6Vg2-36" style="edgeStyle=orthogonalEdgeStyle;rounded=0;orthogonalLoop=1;jettySize=auto;html=1;exitX=0;exitY=0.5;exitDx=0;exitDy=0;entryX=0.25;entryY=1;entryDx=0;entryDy=0;" edge="1" parent="1" source="c6CO79K2PgTcj9Gy6Vg2-17" target="c6CO79K2PgTcj9Gy6Vg2-5">
          <mxGeometry relative="1" as="geometry" />
        </mxCell>
        <mxCell id="c6CO79K2PgTcj9Gy6Vg2-17" value="FORMAN" style="rhombus;whiteSpace=wrap;html=1;" vertex="1" parent="1">
          <mxGeometry x="670" y="170" width="80" height="80" as="geometry" />
        </mxCell>
        <mxCell id="c6CO79K2PgTcj9Gy6Vg2-24" style="edgeStyle=orthogonalEdgeStyle;rounded=0;orthogonalLoop=1;jettySize=auto;html=1;exitX=0.5;exitY=0;exitDx=0;exitDy=0;" edge="1" parent="1" source="c6CO79K2PgTcj9Gy6Vg2-18" target="c6CO79K2PgTcj9Gy6Vg2-1">
          <mxGeometry relative="1" as="geometry" />
        </mxCell>
        <mxCell id="c6CO79K2PgTcj9Gy6Vg2-25" style="edgeStyle=orthogonalEdgeStyle;rounded=0;orthogonalLoop=1;jettySize=auto;html=1;exitX=0.5;exitY=1;exitDx=0;exitDy=0;entryX=0.5;entryY=0;entryDx=0;entryDy=0;" edge="1" parent="1" source="c6CO79K2PgTcj9Gy6Vg2-18" target="c6CO79K2PgTcj9Gy6Vg2-4">
          <mxGeometry relative="1" as="geometry" />
        </mxCell>
        <mxCell id="c6CO79K2PgTcj9Gy6Vg2-26" style="edgeStyle=orthogonalEdgeStyle;rounded=0;orthogonalLoop=1;jettySize=auto;html=1;exitX=1;exitY=0;exitDx=0;exitDy=0;entryX=0;entryY=0.5;entryDx=0;entryDy=0;" edge="1" parent="1" source="c6CO79K2PgTcj9Gy6Vg2-18" target="c6CO79K2PgTcj9Gy6Vg2-20">
          <mxGeometry relative="1" as="geometry" />
        </mxCell>
        <mxCell id="c6CO79K2PgTcj9Gy6Vg2-27" style="edgeStyle=orthogonalEdgeStyle;rounded=0;orthogonalLoop=1;jettySize=auto;html=1;exitX=1;exitY=1;exitDx=0;exitDy=0;entryX=0;entryY=0.5;entryDx=0;entryDy=0;" edge="1" parent="1" source="c6CO79K2PgTcj9Gy6Vg2-18" target="c6CO79K2PgTcj9Gy6Vg2-21">
          <mxGeometry relative="1" as="geometry" />
        </mxCell>
        <mxCell id="c6CO79K2PgTcj9Gy6Vg2-18" value="FORMAN" style="rhombus;whiteSpace=wrap;html=1;" vertex="1" parent="1">
          <mxGeometry x="140" y="190" width="80" height="60" as="geometry" />
        </mxCell>
        <mxCell id="c6CO79K2PgTcj9Gy6Vg2-32" style="edgeStyle=orthogonalEdgeStyle;rounded=0;orthogonalLoop=1;jettySize=auto;html=1;exitX=1;exitY=0.5;exitDx=0;exitDy=0;entryX=0;entryY=0.5;entryDx=0;entryDy=0;" edge="1" parent="1" source="c6CO79K2PgTcj9Gy6Vg2-19" target="c6CO79K2PgTcj9Gy6Vg2-3">
          <mxGeometry relative="1" as="geometry" />
        </mxCell>
        <mxCell id="c6CO79K2PgTcj9Gy6Vg2-19" value="SUMINISTRA" style="rhombus;whiteSpace=wrap;html=1;" vertex="1" parent="1">
          <mxGeometry x="355" y="310" width="110" height="80" as="geometry" />
        </mxCell>
        <mxCell id="c6CO79K2PgTcj9Gy6Vg2-20" value="PRECIO" style="ellipse;whiteSpace=wrap;html=1;" vertex="1" parent="1">
          <mxGeometry x="220" y="170" width="100" height="50" as="geometry" />
        </mxCell>
        <mxCell id="c6CO79K2PgTcj9Gy6Vg2-21" value="CANTIDAD" style="ellipse;whiteSpace=wrap;html=1;" vertex="1" parent="1">
          <mxGeometry x="220" y="220" width="100" height="50" as="geometry" />
        </mxCell>
      </root>
    </mxGraphModel>
  </diagram>
</mxfile>
